<svg xmlns="http://www.w3.org/2000/svg" viewBox="0 0 520 430" fill="none">
  <defs>
    <linearGradient id="metal" x1="115" y1="84" x2="362" y2="356" gradientUnits="userSpaceOnUse"><stop stop-color="#fbe8c9"/><stop offset=".42" stop-color="#ca8a47"/><stop offset="1" stop-color="#4b2a20"/></linearGradient>
    <linearGradient id="orbit" x1="120" y1="60" x2="422" y2="352" gradientUnits="userSpaceOnUse"><stop stop-color="#f6d6a5"/><stop offset=".48" stop-color="#92603c"/><stop offset=".73" stop-color="#d2ac7b"/><stop offset="1" stop-color="#563b2b"/></linearGradient>
    <radialGradient id="halo"><stop stop-color="#d39a51" stop-opacity=".19"/><stop offset="1" stop-color="#d39a51" stop-opacity="0"/></radialGradient>
    <linearGradient id="inlay" x1="173" y1="188" x2="329" y2="284" gradientUnits="userSpaceOnUse"><stop stop-color="#fff0bd"/><stop offset=".45" stop-color="#dcaa52"/><stop offset="1" stop-color="#98702f"/></linearGradient>
    <clipPath id="body"><path d="M259 104l101 56-16 126-84 42-92-49-17-120 108-55Z"/></clipPath>
    <pattern id="worked-metal" width="37" height="31" patternUnits="userSpaceOnUse"><g fill="none" stroke="#4d3321" stroke-opacity=".18" stroke-width=".65"><path d="M5 8q3-3 6 0m10 7q3-2 5 1M7 23q2-3 5-1m16-17 3 1"/><circle cx="19" cy="25" r="1.3"/><circle cx="32" cy="21" r=".8"/></g></pattern>
    <mask id="moon" maskUnits="userSpaceOnUse" x="269" y="216" width="59" height="55"><circle cx="294" cy="246" r="20" fill="#fff"/><circle cx="303" cy="242" r="19" fill="#000"/></mask>
  </defs>
  <ellipse cx="261" cy="222" rx="225" ry="195" fill="url(#halo)"/>
  <g stroke="url(#orbit)">
    <ellipse cx="260" cy="215" rx="193" ry="176" transform="rotate(-25 260 215)" stroke-width="8"/>
    <ellipse cx="260" cy="215" rx="172" ry="89" transform="rotate(38 260 215)" stroke-width="7"/>
    <path d="M116 93l10 10m264 235l10 10M93 315l11-6m311-194l11-6" opacity=".65"/>
  </g>
  <path d="M259 104l101 56-16 126-84 42-92-49-17-120 108-55Z" fill="url(#metal)" stroke="#f0c68f" stroke-opacity=".55"/>
  <path d="m259 104-23 96-85-41 108-55Z" fill="#efd2a5"/>
  <path d="m259 104 101 56-83 48-41-8 23-96Z" fill="#c3894f"/>
  <path d="m151 159 85 41-68 79-17-120Z" fill="#67472c"/>
  <path d="m236 200 41 8 67 78-84 42-24-128Z" fill="#65462b"/>
  <path d="m236 200 24 128-92-49 68-79Z" fill="#d5a268"/>
  <path d="m277 208 83-48-16 126-67-78Z" fill="#583529"/>
  <path d="m259 104-23 96 41 8 83-48m-124 40-68 79m68-79 24 128m17-120 67 78" stroke="#fff1d7" stroke-opacity=".22"/>
  <g clip-path="url(#body)"><path d="M259 104l101 56-16 126-84 42-92-49-17-120 108-55Z" fill="url(#worked-metal)"/></g>
  <g fill="none" stroke="#633e23" stroke-width="1.2" stroke-opacity=".7"><path d="m157 168 72 34-60 68Zm84 40 34 7 58 66-70 35Z"/></g>
  <g><circle cx="197" cy="221" r="19" fill="#7b5127"/><circle cx="196" cy="220" r="17.8" fill="url(#inlay)" stroke="#efc477" stroke-width=".7"/><circle cx="196" cy="220" r="17.8" fill="url(#worked-metal)"/></g>
  <g mask="url(#moon)"><circle cx="294" cy="246" r="20" fill="url(#inlay)" stroke="#efc477" stroke-width="1.5"/><circle cx="294" cy="246" r="20" fill="url(#worked-metal)"/></g>
  <g fill="url(#inlay)" stroke="#80582e" stroke-width=".5"><circle cx="265" cy="148" r="2.9"/><circle cx="278" cy="155" r="2.2"/><circle cx="291" cy="161" r="2.5"/><circle cx="263" cy="164" r="2"/><circle cx="277" cy="174" r="2.7"/><circle cx="250" cy="172" r="1.9"/><circle cx="290" cy="181" r="1.7"/></g>
  <g stroke="url(#orbit)" stroke-width="1.8"><path d="M67 218c25 47 95 91 160 101m49-227c79 4 141 43 174 97"/></g>
  <g transform="rotate(-25 260 215)"><circle cx="453.00" cy="215.00" r="1.7" fill="#5c3a21" stroke="#b88343" stroke-width=".5"/><path d="M426.63 298.89L431.08 301.59" stroke="#634124" stroke-width=".85"/><path d="M424.27 301.18L430.02 304.82" stroke="#634124" stroke-width=".85"/><path d="M423.21 304.30L427.55 307.16" stroke="#634124" stroke-width=".85"/><circle cx="356.50" cy="367.42" r="1.7" fill="#5c3a21" stroke="#b88343" stroke-width=".5"/><path d="M263.43 388.37L263.52 393.57" stroke="#634124" stroke-width=".85"/><path d="M260.00 387.60L260.00 394.40" stroke="#634124" stroke-width=".85"/><path d="M256.57 388.37L256.48 393.57" stroke="#634124" stroke-width=".85"/><circle cx="163.50" cy="367.42" r="1.7" fill="#5c3a21" stroke="#b88343" stroke-width=".5"/><path d="M96.79 304.30L92.45 307.16" stroke="#634124" stroke-width=".85"/><path d="M95.73 301.18L89.98 304.82" stroke="#634124" stroke-width=".85"/><path d="M93.37 298.89L88.92 301.59" stroke="#634124" stroke-width=".85"/><circle cx="67.00" cy="215.00" r="1.7" fill="#5c3a21" stroke="#b88343" stroke-width=".5"/><path d="M93.37 131.11L88.92 128.41" stroke="#634124" stroke-width=".85"/><path d="M95.73 128.82L89.98 125.18" stroke="#634124" stroke-width=".85"/><path d="M96.79 125.70L92.45 122.84" stroke="#634124" stroke-width=".85"/><circle cx="163.50" cy="62.58" r="1.7" fill="#5c3a21" stroke="#b88343" stroke-width=".5"/><path d="M256.57 41.63L256.48 36.43" stroke="#634124" stroke-width=".85"/><path d="M260.00 42.40L260.00 35.60" stroke="#634124" stroke-width=".85"/><path d="M263.43 41.63L263.52 36.43" stroke="#634124" stroke-width=".85"/><circle cx="356.50" cy="62.58" r="1.7" fill="#5c3a21" stroke="#b88343" stroke-width=".5"/><path d="M423.21 125.70L427.55 122.84" stroke="#634124" stroke-width=".85"/><path d="M424.27 128.82L430.02 125.18" stroke="#634124" stroke-width=".85"/><path d="M426.63 131.11L431.08 128.41" stroke="#634124" stroke-width=".85"/></g><g transform="rotate(38 260 215)"><circle cx="432.00" cy="215.00" r="1.7" fill="#5c3a21" stroke="#b88343" stroke-width=".5"/><path d="M408.70 256.21L412.26 260.00" stroke="#634124" stroke-width=".85"/><path d="M406.69 256.97L411.23 262.03" stroke="#634124" stroke-width=".85"/><path d="M405.69 258.91L409.08 262.85" stroke="#634124" stroke-width=".85"/><circle cx="346.00" cy="292.08" r="1.7" fill="#5c3a21" stroke="#b88343" stroke-width=".5"/><path d="M263.07 301.39L263.12 306.59" stroke="#634124" stroke-width=".85"/><path d="M260.00 300.60L260.00 307.40" stroke="#634124" stroke-width=".85"/><path d="M256.93 301.39L256.88 306.59" stroke="#634124" stroke-width=".85"/><circle cx="174.00" cy="292.08" r="1.7" fill="#5c3a21" stroke="#b88343" stroke-width=".5"/><path d="M114.31 258.91L110.92 262.85" stroke="#634124" stroke-width=".85"/><path d="M113.31 256.97L108.77 262.03" stroke="#634124" stroke-width=".85"/><path d="M111.30 256.21L107.74 260.00" stroke="#634124" stroke-width=".85"/><circle cx="88.00" cy="215.00" r="1.7" fill="#5c3a21" stroke="#b88343" stroke-width=".5"/><path d="M111.30 173.79L107.74 170.00" stroke="#634124" stroke-width=".85"/><path d="M113.31 173.03L108.77 167.97" stroke="#634124" stroke-width=".85"/><path d="M114.31 171.09L110.92 167.15" stroke="#634124" stroke-width=".85"/><circle cx="174.00" cy="137.92" r="1.7" fill="#5c3a21" stroke="#b88343" stroke-width=".5"/><path d="M256.93 128.61L256.88 123.41" stroke="#634124" stroke-width=".85"/><path d="M260.00 129.40L260.00 122.60" stroke="#634124" stroke-width=".85"/><path d="M263.07 128.61L263.12 123.41" stroke="#634124" stroke-width=".85"/><circle cx="346.00" cy="137.92" r="1.7" fill="#5c3a21" stroke="#b88343" stroke-width=".5"/><path d="M405.69 171.09L409.08 167.15" stroke="#634124" stroke-width=".85"/><path d="M406.69 173.03L411.23 167.97" stroke="#634124" stroke-width=".85"/><path d="M408.70 173.79L412.26 170.00" stroke="#634124" stroke-width=".85"/></g>
  <g fill="#e5c290"><circle cx="85" cy="132" r="2.4"/><circle cx="407" cy="291" r="2"/><circle cx="398" cy="98" r="1.4"/><circle cx="156" cy="351" r="1.2"/></g>
</svg>
